<svg width="30" height="30" viewBox="0 0 30 30" fill="#000000" xmlns="http://www.w3.org/2000/svg">
<path d="M16.6725 0.649709C16.2134 0.231441 15.6176 0 15 0C14.3824 0 13.7866 0.231441 13.3275 0.649709L0 12.7917V25.951C0 27.0249 0.421427 28.0547 1.17157 28.8141C1.92172 29.5734 2.93913 30 4 30H26C27.0609 30 28.0783 29.5734 28.8284 28.8141C29.5786 28.0547 30 27.0249 30 25.951V12.7917L16.6725 0.649709ZM18.75 27.4656H11.25V21.1061C11.25 20.0993 11.6451 19.1338 12.3483 18.4219C13.0516 17.7101 14.0054 17.3101 15 17.3101C15.9946 17.3101 16.9484 17.7101 17.6517 18.4219C18.3549 19.1338 18.75 20.0993 18.75 21.1061V27.4656ZM27.5 25.9472C27.5 26.3499 27.342 26.7361 27.0607 27.0208C26.7794 27.3056 26.3978 27.4656 26 27.4656H21.25V21.1061C21.25 19.4282 20.5915 17.819 19.4194 16.6325C18.2473 15.4461 16.6576 14.7795 15 14.7795C13.3424 14.7795 11.7527 15.4461 10.5806 16.6325C9.40848 17.819 8.75 19.4282 8.75 21.1061V27.4656H4C3.60218 27.4656 3.22064 27.3056 2.93934 27.0208C2.65804 26.7361 2.5 26.3499 2.5 25.9472V13.9178L15 2.52997L27.5 13.9178V25.9472Z" fill="white"/>
</svg>
