<svg width="32" height="32" viewBox="0 0 32 32" fill="none" xmlns="http://www.w3.org/2000/svg">
<path d="M27.2 0C18.4523 0 13.5477 0 4.8 0C2.16 0 0 2.16 0 4.8V27.2C0 29.84 2.16 32 4.8 32H27.2C29.84 32 32 29.84 32 27.2V4.8C32 2.16 29.84 0 27.2 0ZM28.6 27.96L21.34 20.92L24 18.26C24.42 17.84 25.18 17.84 25.6 18.26L28.8 21.46V27.2C28.8 27.48 28.72 27.74 28.6 27.96ZM4.8 3.2H27.2C28.08 3.2 28.8 3.92 28.8 4.8V16.94L27.86 16C26.18 14.3 23.42 14.3 21.72 16L19.02 18.7L14.24 14.08C12.54 12.38 9.8 12.38 8.14 14.04L3.18 18.7V4.8C3.2 3.92 3.92 3.2 4.8 3.2ZM3.2 27.2V23.1L10.4 16.34C10.82 15.92 11.56 15.9 12.02 16.36L24.88 28.8H4.8C3.92 28.8 3.2 28.1 3.2 27.2Z" fill="white"/>
</svg>
