<svg width="30" height="28" viewBox="0 0 30 28" fill="none" xmlns="http://www.w3.org/2000/svg">
<path d="M23.75 0.25H6.25C4.59301 0.251985 3.00445 0.911102 1.83277 2.08277C0.661102 3.25445 0.00198482 4.84301 0 6.5L0 21.5C0.00198482 23.157 0.661102 24.7456 1.83277 25.9172C3.00445 27.0889 4.59301 27.748 6.25 27.75H23.75C25.407 27.748 26.9956 27.0889 28.1672 25.9172C29.3389 24.7456 29.998 23.157 30 21.5V6.5C29.998 4.84301 29.3389 3.25445 28.1672 2.08277C26.9956 0.911102 25.407 0.251985 23.75 0.25V0.25ZM6.25 2.75H23.75C24.4985 2.75147 25.2294 2.97689 25.8487 3.39725C26.468 3.81762 26.9473 4.41368 27.225 5.10875L17.6525 14.6825C16.948 15.3841 15.9943 15.7781 15 15.7781C14.0057 15.7781 13.052 15.3841 12.3475 14.6825L2.775 5.10875C3.05269 4.41368 3.53202 3.81762 4.15131 3.39725C4.7706 2.97689 5.50152 2.75147 6.25 2.75V2.75ZM23.75 25.25H6.25C5.25544 25.25 4.30161 24.8549 3.59835 24.1517C2.89509 23.4484 2.5 22.4946 2.5 21.5V8.375L10.58 16.45C11.7533 17.6203 13.3428 18.2775 15 18.2775C16.6572 18.2775 18.2467 17.6203 19.42 16.45L27.5 8.375V21.5C27.5 22.4946 27.1049 23.4484 26.4017 24.1517C25.6984 24.8549 24.7446 25.25 23.75 25.25Z" fill="white"/>
</svg>
